<mxfile host="app.diagrams.net" modified="2022-06-18T05:46:22.258Z" agent="5.0 (Macintosh; Intel Mac OS X 10_15_7) AppleWebKit/537.36 (KHTML, like Gecko) Chrome/102.0.0.0 Safari/537.36" etag="pX1UzZMFUkpvGuOo5qao" version="20.0.1" type="github">
  <diagram id="bQs8dvu6adfqrPa5oPls" name="Page-1">
    <mxGraphModel dx="1820" dy="628" grid="1" gridSize="10" guides="1" tooltips="1" connect="1" arrows="1" fold="1" page="1" pageScale="1" pageWidth="850" pageHeight="1100" math="0" shadow="0">
      <root>
        <mxCell id="0" />
        <mxCell id="1" parent="0" />
        <mxCell id="A2KmB-mFcKWk-m9wnVrU-2" value="&lt;font style=&quot;font-size: 16px;&quot;&gt;State table&lt;/font&gt;" style="rounded=1;whiteSpace=wrap;html=1;fillColor=#dae8fc;strokeColor=#6c8ebf;" vertex="1" parent="1">
          <mxGeometry x="50" y="250" width="120" height="60" as="geometry" />
        </mxCell>
        <mxCell id="A2KmB-mFcKWk-m9wnVrU-3" value="&lt;font style=&quot;font-size: 16px;&quot;&gt;Bytecode table&lt;/font&gt;" style="rounded=1;whiteSpace=wrap;html=1;fillColor=#dae8fc;strokeColor=#6c8ebf;" vertex="1" parent="1">
          <mxGeometry x="250" y="250" width="120" height="60" as="geometry" />
        </mxCell>
        <mxCell id="A2KmB-mFcKWk-m9wnVrU-4" value="&lt;font style=&quot;font-size: 16px;&quot;&gt;Block table&lt;br&gt;&lt;/font&gt;" style="rounded=1;whiteSpace=wrap;html=1;fillColor=#dae8fc;strokeColor=#6c8ebf;" vertex="1" parent="1">
          <mxGeometry x="460" y="250" width="120" height="60" as="geometry" />
        </mxCell>
        <mxCell id="A2KmB-mFcKWk-m9wnVrU-5" value="&lt;font style=&quot;font-size: 16px;&quot;&gt;Tx table&lt;/font&gt;" style="rounded=1;whiteSpace=wrap;html=1;fillColor=#dae8fc;strokeColor=#6c8ebf;" vertex="1" parent="1">
          <mxGeometry x="660" y="250" width="120" height="60" as="geometry" />
        </mxCell>
        <mxCell id="A2KmB-mFcKWk-m9wnVrU-6" value="&lt;font style=&quot;font-size: 16px;&quot;&gt;Signature table&lt;/font&gt;" style="rounded=1;whiteSpace=wrap;html=1;fillColor=#dae8fc;strokeColor=#6c8ebf;" vertex="1" parent="1">
          <mxGeometry x="580" y="480" width="120" height="60" as="geometry" />
        </mxCell>
        <mxCell id="A2KmB-mFcKWk-m9wnVrU-7" value="&lt;font style=&quot;font-size: 16px;&quot;&gt;Keccak table&lt;/font&gt;" style="rounded=1;whiteSpace=wrap;html=1;fillColor=#dae8fc;strokeColor=#6c8ebf;" vertex="1" parent="1">
          <mxGeometry x="360" y="480" width="120" height="60" as="geometry" />
        </mxCell>
        <mxCell id="A2KmB-mFcKWk-m9wnVrU-8" value="&lt;font style=&quot;font-size: 16px;&quot;&gt;MPT table&lt;/font&gt;" style="rounded=1;whiteSpace=wrap;html=1;fillColor=#dae8fc;strokeColor=#6c8ebf;" vertex="1" parent="1">
          <mxGeometry x="140" y="480" width="120" height="60" as="geometry" />
        </mxCell>
        <mxCell id="A2KmB-mFcKWk-m9wnVrU-9" value="&lt;span style=&quot;&quot;&gt;EVM Circuit&lt;/span&gt;" style="rounded=0;whiteSpace=wrap;html=1;fontSize=16;fillColor=#f8cecc;strokeColor=#b85450;" vertex="1" parent="1">
          <mxGeometry x="360" y="90" width="120" height="60" as="geometry" />
        </mxCell>
        <mxCell id="A2KmB-mFcKWk-m9wnVrU-10" value="&lt;span style=&quot;&quot;&gt;State Circuit&lt;/span&gt;" style="rounded=0;whiteSpace=wrap;html=1;fontSize=16;fillColor=#f8cecc;strokeColor=#b85450;" vertex="1" parent="1">
          <mxGeometry x="50" y="340" width="120" height="60" as="geometry" />
        </mxCell>
        <mxCell id="A2KmB-mFcKWk-m9wnVrU-11" value="&lt;span style=&quot;&quot;&gt;Bytecode Circuit&lt;/span&gt;" style="rounded=0;whiteSpace=wrap;html=1;fontSize=16;fillColor=#f8cecc;strokeColor=#b85450;" vertex="1" parent="1">
          <mxGeometry x="250" y="340" width="120" height="60" as="geometry" />
        </mxCell>
        <mxCell id="A2KmB-mFcKWk-m9wnVrU-12" value="&lt;span style=&quot;&quot;&gt;Block Circuit&lt;/span&gt;" style="rounded=0;whiteSpace=wrap;html=1;fontSize=16;fillColor=#f8cecc;strokeColor=#b85450;" vertex="1" parent="1">
          <mxGeometry x="460" y="340" width="120" height="60" as="geometry" />
        </mxCell>
        <mxCell id="A2KmB-mFcKWk-m9wnVrU-13" value="&lt;span style=&quot;&quot;&gt;Tx Circuit&lt;/span&gt;" style="rounded=0;whiteSpace=wrap;html=1;fontSize=16;fillColor=#f8cecc;strokeColor=#b85450;" vertex="1" parent="1">
          <mxGeometry x="660" y="340" width="120" height="60" as="geometry" />
        </mxCell>
        <mxCell id="A2KmB-mFcKWk-m9wnVrU-14" value="&lt;span style=&quot;&quot;&gt;ECDSA Circuit&lt;/span&gt;" style="rounded=0;whiteSpace=wrap;html=1;fontSize=16;fillColor=#f8cecc;strokeColor=#b85450;" vertex="1" parent="1">
          <mxGeometry x="580" y="570" width="120" height="60" as="geometry" />
        </mxCell>
        <mxCell id="A2KmB-mFcKWk-m9wnVrU-15" value="&lt;span style=&quot;&quot;&gt;Keccak Circuit&lt;/span&gt;" style="rounded=0;whiteSpace=wrap;html=1;fontSize=16;fillColor=#f8cecc;strokeColor=#b85450;" vertex="1" parent="1">
          <mxGeometry x="360" y="570" width="120" height="60" as="geometry" />
        </mxCell>
        <mxCell id="A2KmB-mFcKWk-m9wnVrU-16" value="&lt;span style=&quot;&quot;&gt;MPT Circuit&lt;/span&gt;" style="rounded=0;whiteSpace=wrap;html=1;fontSize=16;fillColor=#f8cecc;strokeColor=#b85450;" vertex="1" parent="1">
          <mxGeometry x="140" y="570" width="120" height="60" as="geometry" />
        </mxCell>
        <mxCell id="A2KmB-mFcKWk-m9wnVrU-17" value="" style="endArrow=classic;html=1;rounded=0;fontSize=16;exitX=0.5;exitY=1;exitDx=0;exitDy=0;entryX=1;entryY=0;entryDx=0;entryDy=0;dashed=1;strokeWidth=1.5;" edge="1" parent="1" source="A2KmB-mFcKWk-m9wnVrU-9" target="A2KmB-mFcKWk-m9wnVrU-2">
          <mxGeometry width="50" height="50" relative="1" as="geometry">
            <mxPoint x="400" y="380" as="sourcePoint" />
            <mxPoint x="450" y="330" as="targetPoint" />
          </mxGeometry>
        </mxCell>
        <mxCell id="A2KmB-mFcKWk-m9wnVrU-19" value="" style="endArrow=classic;html=1;rounded=0;fontSize=16;exitX=0.5;exitY=1;exitDx=0;exitDy=0;entryX=0.5;entryY=0;entryDx=0;entryDy=0;dashed=1;strokeWidth=1.5;" edge="1" parent="1" source="A2KmB-mFcKWk-m9wnVrU-9" target="A2KmB-mFcKWk-m9wnVrU-3">
          <mxGeometry width="50" height="50" relative="1" as="geometry">
            <mxPoint x="430" y="160" as="sourcePoint" />
            <mxPoint x="180" y="260" as="targetPoint" />
          </mxGeometry>
        </mxCell>
        <mxCell id="A2KmB-mFcKWk-m9wnVrU-20" value="" style="endArrow=classic;html=1;rounded=0;fontSize=16;exitX=0.5;exitY=1;exitDx=0;exitDy=0;entryX=0.5;entryY=0;entryDx=0;entryDy=0;dashed=1;strokeWidth=1.5;" edge="1" parent="1" source="A2KmB-mFcKWk-m9wnVrU-9" target="A2KmB-mFcKWk-m9wnVrU-4">
          <mxGeometry width="50" height="50" relative="1" as="geometry">
            <mxPoint x="440" y="170" as="sourcePoint" />
            <mxPoint x="190" y="270" as="targetPoint" />
          </mxGeometry>
        </mxCell>
        <mxCell id="A2KmB-mFcKWk-m9wnVrU-21" value="" style="endArrow=classic;html=1;rounded=0;fontSize=16;entryX=0.5;entryY=0;entryDx=0;entryDy=0;dashed=1;strokeWidth=1.5;exitX=0.5;exitY=1;exitDx=0;exitDy=0;" edge="1" parent="1" source="A2KmB-mFcKWk-m9wnVrU-9" target="A2KmB-mFcKWk-m9wnVrU-5">
          <mxGeometry width="50" height="50" relative="1" as="geometry">
            <mxPoint x="420" y="160" as="sourcePoint" />
            <mxPoint x="200" y="280" as="targetPoint" />
          </mxGeometry>
        </mxCell>
        <mxCell id="A2KmB-mFcKWk-m9wnVrU-23" value="" style="endArrow=classic;html=1;rounded=0;fontSize=16;exitX=0.5;exitY=1;exitDx=0;exitDy=0;entryX=0.5;entryY=0;entryDx=0;entryDy=0;dashed=1;strokeWidth=1.5;" edge="1" parent="1" source="A2KmB-mFcKWk-m9wnVrU-9" target="A2KmB-mFcKWk-m9wnVrU-6">
          <mxGeometry width="50" height="50" relative="1" as="geometry">
            <mxPoint x="430" y="160" as="sourcePoint" />
            <mxPoint x="320" y="260" as="targetPoint" />
          </mxGeometry>
        </mxCell>
        <mxCell id="A2KmB-mFcKWk-m9wnVrU-24" value="" style="endArrow=classic;html=1;rounded=0;fontSize=16;entryX=0.5;entryY=0;entryDx=0;entryDy=0;dashed=1;strokeWidth=1.5;" edge="1" parent="1" target="A2KmB-mFcKWk-m9wnVrU-7">
          <mxGeometry width="50" height="50" relative="1" as="geometry">
            <mxPoint x="420" y="150" as="sourcePoint" />
            <mxPoint x="330" y="270" as="targetPoint" />
          </mxGeometry>
        </mxCell>
        <mxCell id="A2KmB-mFcKWk-m9wnVrU-29" value="" style="endArrow=classic;html=1;rounded=0;fontSize=16;exitX=0.5;exitY=1;exitDx=0;exitDy=0;entryX=0.5;entryY=0;entryDx=0;entryDy=0;dashed=1;strokeWidth=1.5;" edge="1" parent="1" source="A2KmB-mFcKWk-m9wnVrU-10" target="A2KmB-mFcKWk-m9wnVrU-8">
          <mxGeometry width="50" height="50" relative="1" as="geometry">
            <mxPoint x="170" y="410" as="sourcePoint" />
            <mxPoint x="270" y="510" as="targetPoint" />
          </mxGeometry>
        </mxCell>
        <mxCell id="A2KmB-mFcKWk-m9wnVrU-30" value="" style="endArrow=classic;html=1;rounded=0;fontSize=16;exitX=0.5;exitY=1;exitDx=0;exitDy=0;entryX=0.5;entryY=0;entryDx=0;entryDy=0;dashed=1;strokeWidth=1.5;" edge="1" parent="1" source="A2KmB-mFcKWk-m9wnVrU-11" target="A2KmB-mFcKWk-m9wnVrU-7">
          <mxGeometry width="50" height="50" relative="1" as="geometry">
            <mxPoint x="440" y="320" as="sourcePoint" />
            <mxPoint x="540" y="420" as="targetPoint" />
          </mxGeometry>
        </mxCell>
        <mxCell id="A2KmB-mFcKWk-m9wnVrU-31" value="" style="endArrow=classic;html=1;rounded=0;fontSize=16;exitX=0.5;exitY=1;exitDx=0;exitDy=0;entryX=0.5;entryY=0;entryDx=0;entryDy=0;dashed=1;strokeWidth=1.5;" edge="1" parent="1" source="A2KmB-mFcKWk-m9wnVrU-13" target="A2KmB-mFcKWk-m9wnVrU-7">
          <mxGeometry width="50" height="50" relative="1" as="geometry">
            <mxPoint x="695" y="410" as="sourcePoint" />
            <mxPoint x="585" y="510" as="targetPoint" />
          </mxGeometry>
        </mxCell>
        <mxCell id="A2KmB-mFcKWk-m9wnVrU-32" value="" style="endArrow=classic;html=1;rounded=0;fontSize=16;exitX=0.5;exitY=1;exitDx=0;exitDy=0;entryX=0.5;entryY=0;entryDx=0;entryDy=0;dashed=1;strokeWidth=1.5;" edge="1" parent="1" source="A2KmB-mFcKWk-m9wnVrU-13" target="A2KmB-mFcKWk-m9wnVrU-6">
          <mxGeometry width="50" height="50" relative="1" as="geometry">
            <mxPoint x="730" y="390" as="sourcePoint" />
            <mxPoint x="620" y="490" as="targetPoint" />
          </mxGeometry>
        </mxCell>
        <mxCell id="A2KmB-mFcKWk-m9wnVrU-33" value="" style="endArrow=classic;html=1;rounded=0;fontSize=16;exitX=1;exitY=0.5;exitDx=0;exitDy=0;entryX=0.5;entryY=0;entryDx=0;entryDy=0;dashed=1;strokeWidth=1.5;" edge="1" parent="1" source="A2KmB-mFcKWk-m9wnVrU-16" target="A2KmB-mFcKWk-m9wnVrU-7">
          <mxGeometry width="50" height="50" relative="1" as="geometry">
            <mxPoint x="270" y="530" as="sourcePoint" />
            <mxPoint x="360" y="610" as="targetPoint" />
          </mxGeometry>
        </mxCell>
        <mxCell id="A2KmB-mFcKWk-m9wnVrU-37" value="" style="endArrow=classic;html=1;rounded=0;fontSize=16;strokeWidth=1.5;exitX=0.5;exitY=0;exitDx=0;exitDy=0;entryX=0.5;entryY=1;entryDx=0;entryDy=0;strokeColor=#FF3333;" edge="1" parent="1" source="A2KmB-mFcKWk-m9wnVrU-10" target="A2KmB-mFcKWk-m9wnVrU-2">
          <mxGeometry width="50" height="50" relative="1" as="geometry">
            <mxPoint x="150" y="320" as="sourcePoint" />
            <mxPoint x="200" y="270" as="targetPoint" />
          </mxGeometry>
        </mxCell>
        <mxCell id="A2KmB-mFcKWk-m9wnVrU-38" value="" style="endArrow=classic;html=1;rounded=0;fontSize=16;strokeWidth=1.5;exitX=0.5;exitY=0;exitDx=0;exitDy=0;entryX=0.5;entryY=1;entryDx=0;entryDy=0;strokeColor=#FF3333;" edge="1" parent="1">
          <mxGeometry width="50" height="50" relative="1" as="geometry">
            <mxPoint x="309.52" y="340" as="sourcePoint" />
            <mxPoint x="309.52" y="310" as="targetPoint" />
          </mxGeometry>
        </mxCell>
        <mxCell id="A2KmB-mFcKWk-m9wnVrU-39" value="" style="endArrow=classic;html=1;rounded=0;fontSize=16;strokeWidth=1.5;exitX=0.5;exitY=0;exitDx=0;exitDy=0;entryX=0.5;entryY=1;entryDx=0;entryDy=0;strokeColor=#FF3333;" edge="1" parent="1" source="A2KmB-mFcKWk-m9wnVrU-16" target="A2KmB-mFcKWk-m9wnVrU-8">
          <mxGeometry width="50" height="50" relative="1" as="geometry">
            <mxPoint x="199.51999999999998" y="565" as="sourcePoint" />
            <mxPoint x="270" y="540" as="targetPoint" />
          </mxGeometry>
        </mxCell>
        <mxCell id="A2KmB-mFcKWk-m9wnVrU-40" value="" style="endArrow=classic;html=1;rounded=0;fontSize=16;strokeWidth=1.5;exitX=0.5;exitY=0;exitDx=0;exitDy=0;entryX=0.5;entryY=1;entryDx=0;entryDy=0;strokeColor=#FF3333;" edge="1" parent="1">
          <mxGeometry width="50" height="50" relative="1" as="geometry">
            <mxPoint x="719.52" y="340" as="sourcePoint" />
            <mxPoint x="719.52" y="310" as="targetPoint" />
          </mxGeometry>
        </mxCell>
        <mxCell id="A2KmB-mFcKWk-m9wnVrU-41" value="" style="endArrow=classic;html=1;rounded=0;fontSize=16;strokeWidth=1.5;exitX=0.5;exitY=0;exitDx=0;exitDy=0;entryX=0.5;entryY=1;entryDx=0;entryDy=0;strokeColor=#FF3333;" edge="1" parent="1">
          <mxGeometry width="50" height="50" relative="1" as="geometry">
            <mxPoint x="519.52" y="340" as="sourcePoint" />
            <mxPoint x="519.52" y="310" as="targetPoint" />
          </mxGeometry>
        </mxCell>
        <mxCell id="A2KmB-mFcKWk-m9wnVrU-44" value="" style="endArrow=classic;html=1;rounded=0;fontSize=16;strokeWidth=1.5;exitX=0.5;exitY=0;exitDx=0;exitDy=0;entryX=0.5;entryY=1;entryDx=0;entryDy=0;strokeColor=#FF3333;" edge="1" parent="1">
          <mxGeometry width="50" height="50" relative="1" as="geometry">
            <mxPoint x="419.52" y="570" as="sourcePoint" />
            <mxPoint x="419.52" y="540" as="targetPoint" />
          </mxGeometry>
        </mxCell>
        <mxCell id="A2KmB-mFcKWk-m9wnVrU-45" value="" style="endArrow=classic;html=1;rounded=0;fontSize=16;strokeWidth=1.5;exitX=0.5;exitY=0;exitDx=0;exitDy=0;entryX=0.5;entryY=1;entryDx=0;entryDy=0;strokeColor=#FF3333;" edge="1" parent="1">
          <mxGeometry width="50" height="50" relative="1" as="geometry">
            <mxPoint x="639.52" y="570" as="sourcePoint" />
            <mxPoint x="639.52" y="540" as="targetPoint" />
          </mxGeometry>
        </mxCell>
        <mxCell id="A2KmB-mFcKWk-m9wnVrU-46" value="" style="whiteSpace=wrap;html=1;aspect=fixed;fontSize=16;fillColor=none;strokeColor=#000000;strokeWidth=2;" vertex="1" parent="1">
          <mxGeometry x="-300" y="90" width="300" height="300" as="geometry" />
        </mxCell>
        <mxCell id="A2KmB-mFcKWk-m9wnVrU-47" value="&lt;span style=&quot;&quot;&gt;Circuit&lt;/span&gt;" style="rounded=0;whiteSpace=wrap;html=1;fontSize=16;fillColor=#f8cecc;strokeColor=#b85450;" vertex="1" parent="1">
          <mxGeometry x="-280" y="110" width="120" height="60" as="geometry" />
        </mxCell>
        <mxCell id="A2KmB-mFcKWk-m9wnVrU-48" value="&lt;font style=&quot;font-size: 16px;&quot;&gt;table&lt;/font&gt;" style="rounded=1;whiteSpace=wrap;html=1;fillColor=#dae8fc;strokeColor=#6c8ebf;" vertex="1" parent="1">
          <mxGeometry x="-280" y="200" width="120" height="60" as="geometry" />
        </mxCell>
        <mxCell id="A2KmB-mFcKWk-m9wnVrU-49" value="" style="endArrow=classic;html=1;rounded=0;fontSize=16;strokeColor=#FF3333;strokeWidth=1.5;" edge="1" parent="1">
          <mxGeometry width="50" height="50" relative="1" as="geometry">
            <mxPoint x="-280" y="360" as="sourcePoint" />
            <mxPoint x="-160" y="360" as="targetPoint" />
          </mxGeometry>
        </mxCell>
        <mxCell id="A2KmB-mFcKWk-m9wnVrU-50" value="" style="endArrow=classic;html=1;rounded=0;fontSize=16;exitX=0.5;exitY=1;exitDx=0;exitDy=0;dashed=1;strokeWidth=1.5;" edge="1" parent="1">
          <mxGeometry width="50" height="50" relative="1" as="geometry">
            <mxPoint x="-280" y="304.52000000000004" as="sourcePoint" />
            <mxPoint x="-160" y="304.52000000000004" as="targetPoint" />
          </mxGeometry>
        </mxCell>
        <mxCell id="A2KmB-mFcKWk-m9wnVrU-53" value="&lt;font style=&quot;font-size: 18px;&quot;&gt;Circuit&lt;/font&gt;" style="text;html=1;strokeColor=none;fillColor=none;align=center;verticalAlign=middle;whiteSpace=wrap;rounded=0;fontSize=16;" vertex="1" parent="1">
          <mxGeometry x="-150" y="135" width="130" height="10" as="geometry" />
        </mxCell>
        <mxCell id="A2KmB-mFcKWk-m9wnVrU-55" value="&lt;font style=&quot;font-size: 18px;&quot;&gt;Lookup table&lt;/font&gt;" style="text;html=1;strokeColor=none;fillColor=none;align=center;verticalAlign=middle;whiteSpace=wrap;rounded=0;fontSize=16;" vertex="1" parent="1">
          <mxGeometry x="-150" y="225" width="130" height="10" as="geometry" />
        </mxCell>
        <mxCell id="A2KmB-mFcKWk-m9wnVrU-56" value="constraint table" style="text;html=1;strokeColor=none;fillColor=none;align=center;verticalAlign=middle;whiteSpace=wrap;rounded=0;fontSize=18;" vertex="1" parent="1">
          <mxGeometry x="-155" y="340" width="140" height="30" as="geometry" />
        </mxCell>
        <mxCell id="A2KmB-mFcKWk-m9wnVrU-57" value="look-up table" style="text;html=1;strokeColor=none;fillColor=none;align=center;verticalAlign=middle;whiteSpace=wrap;rounded=0;fontSize=18;" vertex="1" parent="1">
          <mxGeometry x="-155" y="290" width="140" height="30" as="geometry" />
        </mxCell>
      </root>
    </mxGraphModel>
  </diagram>
</mxfile>
